<svg xmlns="http://www.w3.org/2000/svg" xmlns:xlink="http://www.w3.org/1999/xlink" width="67.761" height="70.313" viewBox="0 0 67.761 70.313"><defs><clipPath id="a"><rect width="67.761" height="70.313" transform="translate(0 0)" fill="none"/></clipPath></defs><g transform="translate(0 0)"><g clip-path="url(#a)"><path d="M37.749,35.637c.379-5.846-3.382-11.286-8.478-13.9-5.5-2.823-12.043-2.037-17.372.805A22.737,22.737,0,0,0,.477,36.546,14.536,14.536,0,0,0,4.965,51.262c3.852,3.365,8.812,5.068,13.462,7a46.773,46.773,0,0,1,7.007,3.461c2.562,1.613,4.818,3.658,7.293,5.4,2.291,1.609,4.891,3.069,7.755,3.184a9.452,9.452,0,0,0,7.655-3.893,31.476,31.476,0,0,0,6.356-18.066c.3-6.812-1.413-14.61-6.106-19.785a12.27,12.27,0,0,0-8.261-4.193A9.282,9.282,0,0,0,32.2,27.627l2.089,1.216q2.549-13.647,5.1-27.3l-1.836.746q3.069,1.4,6.14,2.789-.225-.855-.449-1.711a113.118,113.118,0,0,0-8.645,21.2,1.256,1.256,0,0,0,2.285.963A36.995,36.995,0,0,1,56.276,8.22a36.458,36.458,0,0,1,6.293-1.79c.66-.124,2.633-.7,2.7.358.06,1.029-1.635,2.213-2.289,2.8a88.818,88.818,0,0,1-12.158,9.066,90.351,90.351,0,0,1-15.508,7.686c-1.488.567-.843,2.985.665,2.411a93.688,93.688,0,0,0,15.738-7.712A80.243,80.243,0,0,0,65.839,10.356c1.56-1.529,3.058-4.5.682-6.086-1.921-1.278-4.967-.244-6.991.282a39.517,39.517,0,0,0-24.8,19.722l2.284.964A109.563,109.563,0,0,1,45.4,4.634a1.262,1.262,0,0,0-.449-1.71L38.813.136a1.266,1.266,0,0,0-1.835.747q-2.55,13.647-5.1,27.3c-.2,1.08,1.239,2.3,2.09,1.216a6.967,6.967,0,0,1,6.154-2.526,9.768,9.768,0,0,1,6.492,3.461c3.7,4.087,5.222,10.188,5.39,15.57a30.655,30.655,0,0,1-4.064,16.361c-1.335,2.286-3.056,4.733-5.781,5.39-2.461.593-4.871-.557-6.906-1.839-2.3-1.45-4.363-3.241-6.547-4.855a34.887,34.887,0,0,0-6-3.526c-4.127-1.931-8.513-3.322-12.5-5.555-3.761-2.108-7.023-5.235-7.654-9.7C1.785,36.682,4.918,31.2,8.9,27.656c4.512-4.019,11.13-6.451,17.1-4.583,5.352,1.675,9.626,6.824,9.254,12.564-.1,1.606,2.4,1.6,2.5,0" fill="#313f29"/></g></g></svg>