<svg xmlns="http://www.w3.org/2000/svg" xmlns:xlink="http://www.w3.org/1999/xlink" width="78.537" height="67.441" viewBox="0 0 78.537 67.441"><defs><clipPath id="a"><rect width="78.537" height="67.441" transform="translate(0 0)" fill="none"/></clipPath></defs><g clip-path="url(#a)"><path d="M27.8,19.408c8.681,11.96,15.06,25.622,20.51,39.358-9.349-5.748-22.782-3.531-29.788,4.917A73.124,73.124,0,0,0,1.037,29.777,16.408,16.408,0,0,1,11.215,16.33,16.407,16.407,0,0,1,27.8,19.408C29.164,9.84,40.184,4.607,49.85,4.619a20.8,20.8,0,0,1,4.092.779S70.8,32.466,77.674,44.172c-4.468-5.12-12.968-5.127-18.6-1.325s-8.741,10.448-10.151,17.1" fill="none" stroke="#fff" stroke-miterlimit="10" stroke-width="2"/><path d="M28.38,1.517c-.584-1.124-2.6-.184-3.578.624a3.738,3.738,0,0,0-1.285,3.4c-.691-.318-4.3-1.969-5.5-1.985a2.961,2.961,0,0,0-2.892,1.741A2.962,2.962,0,0,0,16.848,8.66c1.238.605,2.992,1.5,4.27,2.016C23.9,11.8,26.2,12.957,26.2,12.957S30.514,5.628,28.38,1.517Z" fill="none" stroke="#fff" stroke-miterlimit="10" stroke-width="2"/><path d="M52.8,61.333a12.7,12.7,0,0,1,2.658-6.2,20,20,0,0,1,8.9-6.978,15.089,15.089,0,0,1,11.184.085" fill="none" stroke="#fff" stroke-miterlimit="10" stroke-width="2"/><path d="M47.3,63.352a13.533,13.533,0,0,0-10.952-3.987c-5.32.349-11.106,2.894-13.594,7.61" fill="none" stroke="#fff" stroke-miterlimit="10" stroke-width="2"/></g></svg>