<svg xmlns="http://www.w3.org/2000/svg" xmlns:xlink="http://www.w3.org/1999/xlink" width="81.522" height="129.615" viewBox="0 0 81.522 129.615"><defs><clipPath id="a"><rect width="81.522" height="129.615" fill="none"/></clipPath></defs><g clip-path="url(#a)"><path d="M25.721,40.086a8.571,8.571,0,0,1,2.752-2.524c1.434-.688,3.106-.527,4.7-.538A19.2,19.2,0,0,0,49.863,27.008,17.106,17.106,0,0,0,47.406,7.964c-3.67-3.907-9.082-5.691-14.382-6.5C22.862-.07,11.345,2.025,4.794,9.946,2.225,13.051.547,17.1,1.108,21.095,2.157,28.549,10,32.762,16.89,35.788c-.729-.321-2.89,17.285-2.818,18.73C17.936,49.735,21.829,44.881,25.721,40.086Z" fill="none" stroke="#fff" stroke-linejoin="round" stroke-width="2"/><path d="M66.2,119.148s14.342-9.676,14.324-15.826C80.5,96.953,75.78,91.328,70.084,88.479s-12.235-3.421-18.6-3.68c-5.531-.226-11.56-.094-15.884,3.362-6.131,4.9-6.022,14.833-1.671,21.364s11.735,10.323,19.019,13.244c5.744,2.3,13.431,7.322,19.118,5.427C70.07,125.532,66.2,119.148,66.2,119.148Z" fill="none" stroke="#fff" stroke-linejoin="round" stroke-width="2"/></g></svg>