<svg xmlns="http://www.w3.org/2000/svg" xmlns:xlink="http://www.w3.org/1999/xlink" width="59.937" height="50.543" viewBox="0 0 59.937 50.543"><defs><clipPath id="a"><rect width="59.937" height="50.543" transform="translate(0 0)" fill="none"/></clipPath></defs><g clip-path="url(#a)"><path d="M.357,31.251a20.718,20.718,0,0,1,12.715-.637,8.716,8.716,0,0,0,4.176.571c3.112-.72,3.758-4.74,5.252-7.564a10.132,10.132,0,0,1,8.856-5.278,2.5,2.5,0,0,1,1.556.409,2.616,2.616,0,0,1,.772,1.516,15.343,15.343,0,0,1,.378,4.388c-.088,1.509-1.3,3.474-2.606,2.708a2.431,2.431,0,0,1-.9-1.521c-.594-2.052-1.088-4.551.4-6.087a6.938,6.938,0,0,1,2.753-1.432,26.982,26.982,0,0,0,8.9-5.366c3.475-3.152,6.16-8.415,3.7-12.412" fill="none" stroke="#fff" stroke-linejoin="round" stroke-width="2"/><path d="M8.363,43.838a12.523,12.523,0,0,1,11.485,2.875c1.2,1.111,2.292,2.529,3.893,2.85" fill="none" stroke="#fff" stroke-linejoin="round" stroke-width="2"/><path d="M23.21,41.464c3.655.631,7.416,1.26,11.044.494s7.144-3.267,7.974-6.881" fill="none" stroke="#fff" stroke-linejoin="round" stroke-width="2"/><path d="M54.8,11.036a18.275,18.275,0,0,0,.185,7.062c.671,2.274,2.489,4.379,4.845,4.64" fill="none" stroke="#fff" stroke-linejoin="round" stroke-width="2"/><path d="M14.663.693A14.17,14.17,0,0,0,30.126,3.777" fill="none" stroke="#fff" stroke-linejoin="round" stroke-width="2"/></g></svg>