<svg xmlns="http://www.w3.org/2000/svg" xmlns:xlink="http://www.w3.org/1999/xlink" width="206.635" height="77.854" viewBox="0 0 206.635 77.854"><defs><clipPath id="a"><rect width="206.635" height="77.854" transform="translate(0 0)" fill="none"/></clipPath></defs><g clip-path="url(#a)"><path d="M2.419,69.337a115.651,115.651,0,0,1,3.94-52.848c1.506-4.757,5.9-10.471,10.22-7.967,2.509,1.455,2.915,4.847,3.037,7.745Q20.886,46.234,22.155,76.2A96.162,96.162,0,0,1,48.536,14.892c2.718-2.834,7.288-5.572,10.167-2.9,1.373,1.273,1.664,3.3,1.873,5.162l6.639,59.025A91.887,91.887,0,0,1,87.048,22.964c1.71-2.144,4.653-4.387,6.874-2.778a5.629,5.629,0,0,1,1.714,2.935q9.075,27.208,18.151,54.416c-2.025-12.727-4.054-25.675-2.321-38.446S122.8,6.994,130.2,6.691C141.347,6.235,142.325,46,147,66.02a89.026,89.026,0,0,1,20.908-55.365c5.486-6.471,14.55-12.514,21.855-8.2,4.261,2.515,6.068,7.661,7.413,12.422a251.03,251.03,0,0,1,8.464,46.09" fill="none" stroke="#fff" stroke-linejoin="bevel" stroke-width="2"/></g></svg>