<svg xmlns="http://www.w3.org/2000/svg" xmlns:xlink="http://www.w3.org/1999/xlink" width="67.503" height="65.935" viewBox="0 0 67.503 65.935"><defs><clipPath id="a"><rect width="67.503" height="65.935" transform="translate(0 0)" fill="none"/></clipPath></defs><g clip-path="url(#a)"><path d="M31.2,46.184a26.556,26.556,0,0,0-5.409,19.622" fill="none" stroke="#fff" stroke-miterlimit="10" stroke-width="2"/><path d="M44.775,47.167c3.033,1.869,6.149,3.772,9.642,4.475s7.5-.027,9.819-2.732" fill="none" stroke="#fff" stroke-miterlimit="10" stroke-width="2"/><path d="M44.6,27.789a33.765,33.765,0,0,0,8.305-5.361c2.374-2.3,4.089-5.514,3.813-8.811" fill="none" stroke="#fff" stroke-miterlimit="10" stroke-width="2"/><path d="M31.561,26.268c1.147-8.152-5.266-16.6-13.425-17.7" fill="none" stroke="#fff" stroke-miterlimit="10" stroke-width="2"/><path d="M21.335,36.874C16.271,37.9,10.566,35.4,6.056,37.923,3.7,39.238,2.23,41.665.861,43.986" fill="none" stroke="#fff" stroke-miterlimit="10" stroke-width="2"/><path d="M64.225,22.528c.809-3.786,2.088-7.505,2.261-11.372S65.49,3.079,62.354.81" fill="none" stroke="#fff" stroke-miterlimit="10" stroke-width="2"/></g></svg>