<svg xmlns="http://www.w3.org/2000/svg" xmlns:xlink="http://www.w3.org/1999/xlink" width="72.969" height="112.354" viewBox="0 0 72.969 112.354"><defs><clipPath id="a"><rect width="72.969" height="112.354" transform="translate(0 0)" fill="none"/></clipPath></defs><g clip-path="url(#a)"><path d="M2.5,111.148A153.354,153.354,0,0,1,25.523,35.729l-1.963.253c4.388,4.331,8.827,8.617,13.167,13a6.351,6.351,0,0,1,1.957,2.848c.346,1.527-.489,3.1-1.177,4.4-1.339,2.541-2.739,5.053-4.149,7.555Q24.721,79.117,14.771,93.66q-5.594,8.176-11.584,16.072c-.971,1.282,1.2,2.529,2.159,1.262Q16.468,96.316,26.24,80.681q4.937-7.91,9.5-16.042c1.477-2.628,3.02-5.253,4.339-7.965,1.192-2.452,1.722-5.1.1-7.491a22.65,22.65,0,0,0-3.006-3.27l-3.835-3.785-8.018-7.914a1.265,1.265,0,0,0-1.963.253A156.33,156.33,0,0,0,0,111.148c-.059,1.609,2.441,1.607,2.5,0" fill="#313f29"/><path d="M31.655,40.37c-1.276-10.454-2.693-24.158,6.951-31.357L36.725,7.934a67.3,67.3,0,0,1-9.288,32.5c-.835,1.418,1.227,2.529,2.159,1.261A262.505,262.505,0,0,1,65.444,2.129L63.481.614C59.131,8.119,54.737,15.73,48.767,22.09c-5.2,5.543-12.322,9.762-15.42,16.991a1.262,1.262,0,0,0,1.71,1.71L72.316,24.524c1.471-.643.2-2.8-1.262-2.159a77.923,77.923,0,0,0-19.14,11.9c-4.94,4.172-11.8,11.543-18.958,7.709-1.418-.759-2.682,1.4-1.261,2.159,7.437,3.982,14.68-1.671,20.046-6.414a78.18,78.18,0,0,1,20.575-13.2q-.632-1.08-1.262-2.159L33.795,38.632l1.71,1.711c3.111-7.259,10.469-11.469,15.62-17.124,5.822-6.39,10.2-13.9,14.514-21.343A1.256,1.256,0,0,0,63.676.361,265.6,265.6,0,0,0,27.437,40.434L29.6,41.695A69.947,69.947,0,0,0,39.225,7.934a1.258,1.258,0,0,0-1.881-1.08A22.866,22.866,0,0,0,29.01,20.47c-1.454,6.559-.659,13.313.145,19.9.192,1.577,2.695,1.6,2.5,0" fill="#313f29"/><path d="M37.533,75.124a31.326,31.326,0,0,0-23.7,6.206,29,29,0,0,0-4.577,4.385c-1.41,1.7-2.789,3.549-3.081,5.8-.549,4.222,2.441,8.106,5.571,10.578,6.29,4.97,14.871,5.568,22.552,4.691,3.954-.451,8.268-1.026,11.909-2.708a8.5,8.5,0,0,0,5.054-9.408c-.769-4.539-4.114-8.1-7.725-10.668-3.817-2.715-8.278-4.981-10.593-9.251-.767-1.415-2.926-.154-2.158,1.262,1.775,3.274,4.71,5.548,7.736,7.6s6.256,3.935,8.349,7.036c1.809,2.682,3.134,6.541.8,9.335-2.291,2.739-6.788,3.241-10.092,3.82-6.787,1.189-14.514,1.538-20.878-1.546-3.1-1.5-6.184-3.973-7.538-7.236a5.932,5.932,0,0,1,.64-5.907,24.037,24.037,0,0,1,3.675-4.217,28.711,28.711,0,0,1,23.4-7.36c1.574.235,2.253-2.173.665-2.411" fill="#313f29"/></g></svg>