<svg xmlns="http://www.w3.org/2000/svg" xmlns:xlink="http://www.w3.org/1999/xlink" width="98.003" height="150.09" viewBox="0 0 98.003 150.09"><defs><clipPath id="a"><rect width="98.003" height="150.09" fill="none"/></clipPath></defs><g clip-path="url(#a)"><path d="M2.4,149.563c10.918-14.33,22.039-28.532,32.55-43.166C44.79,92.7,54.013,78.455,61.04,63.092a149.277,149.277,0,0,0,9.374-26.6c.382-1.563-2.028-2.23-2.411-.665C64.033,52.068,56.956,67.3,48.4,81.607c-8.668,14.5-18.764,28.076-28.973,41.511Q9.854,135.721.246,148.3c-.974,1.28,1.2,2.526,2.159,1.262" fill="#313f29"/><path d="M67.85,37.387a47.007,47.007,0,0,0-.565-12.7,1.255,1.255,0,0,0-1.836-.747C58.21,29.084,55.977,39.774,60.81,47.3l2.158-1.262-6.279-9.5a1.264,1.264,0,0,0-2.159,0,25.215,25.215,0,0,0,2.612,27.521c.884,1.092,2.8-.368,1.963-1.515a100.127,100.127,0,0,1-7.762-12.406,1.257,1.257,0,0,0-2.158,0,30.943,30.943,0,0,0,2.092,28.669l2.158-1.262a40.722,40.722,0,0,1-5.983-14.582,1.259,1.259,0,0,0-2.089-.552A21.747,21.747,0,0,0,40.122,75.1c-.37,4.031.552,8.471,3.871,11.1,3.3,2.61,7.675,2.454,11.421.955a22.257,22.257,0,0,0,5.5-3.225c1.567-1.233,3.483-2.81,4.132-4.769.806-2.429-.982-4.168-3.277-4.455a72.8,72.8,0,0,0-8.95-.068q.167,1.227.332,2.455A27.021,27.021,0,0,0,71.928,59.6a1.258,1.258,0,0,0-1.538-1.537,27.263,27.263,0,0,1-8.817,1.658q.315,1.166.631,2.33A35.435,35.435,0,0,0,80.89,41.143a1.263,1.263,0,0,0-1.836-1.412,26.594,26.594,0,0,1-12,3.514q.316,1.164.631,2.329A42.735,42.735,0,0,0,75.806,39.3a40.744,40.744,0,0,0,3.441-3.881,15.854,15.854,0,0,0,2.566-3.959c1.153-3.046-1.314-5.615-4.366-4.22a20.409,20.409,0,0,0-4.109,3.051L68.455,34.28l2.133.884A58.7,58.7,0,0,1,76.075,5.017l-2.329-.631L70.479,28.729h2.5A66.793,66.793,0,0,1,79.924,1.866L77.639.9,65.286,33.639c-.507,1.344,1.593,2.167,2.285.963Q73.42,24.42,79.27,14.239l-2.285-.963A71.809,71.809,0,0,1,66.434,32.033c-.98,1.253.777,3.034,1.768,1.768A75.739,75.739,0,0,0,79.4,13.94c.509-1.344-1.594-2.166-2.285-.963L65.412,33.34,67.7,34.3Q73.873,17.935,80.05,1.568c.5-1.32-1.655-2.227-2.285-.963a69.835,69.835,0,0,0-7.286,28.124c-.073,1.652,2.293,1.541,2.5,0L76.246,4.386c.165-1.228-1.816-1.7-2.33-.63a61.181,61.181,0,0,0-5.828,31.408,1.268,1.268,0,0,0,2.134.883c2.316-1.892,4.6-3.829,6.95-5.68.509-.4,2.536-1.9,2.466-.392-.052,1.111-1.1,2.253-1.727,3.1a39.454,39.454,0,0,1-11.483,10.34,1.26,1.26,0,0,0,.631,2.33A29.371,29.371,0,0,0,80.315,41.89l-1.836-1.412A32.99,32.99,0,0,1,60.942,59.894c-1.155.528-.546,2.353.631,2.329a29.386,29.386,0,0,0,9.482-1.748l-1.538-1.537a24.444,24.444,0,0,1-17.029,15.74,1.256,1.256,0,0,0,.332,2.456l6.46-.008c1.189,0,4.324-.314,3.157,1.737a12.956,12.956,0,0,1-3.632,3.55,19.139,19.139,0,0,1-4.394,2.46c-2.839,1.091-6.193,1.408-8.754-.526-2.666-2.013-3.276-5.562-3.079-8.7A19.065,19.065,0,0,1,47.13,64.179l-2.089-.551a42.593,42.593,0,0,0,6.236,15.179c.88,1.334,3.023.109,2.158-1.262A28.364,28.364,0,0,1,51.343,51.4H49.185a99.89,99.89,0,0,0,7.762,12.406l1.963-1.515A22.624,22.624,0,0,1,56.689,37.8H54.53l6.28,9.5c.881,1.334,3.033.1,2.158-1.262-4.05-6.31-2.424-15.559,3.743-19.941l-1.837-.747a44.572,44.572,0,0,1,.476,12.035c-.15,1.6,2.351,1.591,2.5,0" fill="#313f29"/><path d="M46.106,42.6V30.12a1.251,1.251,0,0,0-2.5,0V42.6a1.251,1.251,0,0,0,2.5,0" fill="#313f29"/><path d="M86.293,38.953,97.81,20.291c.847-1.372-1.315-2.629-2.159-1.261L84.134,37.691c-.847,1.373,1.315,2.63,2.159,1.262" fill="#313f29"/><path d="M75.634,62.386,91.227,53.03a1.251,1.251,0,0,0-1.261-2.159L74.372,60.227a1.251,1.251,0,0,0,1.262,2.159" fill="#313f29"/><path d="M66.26,82.106,90.22,68.682a1.25,1.25,0,0,0-1.261-2.158L65,79.947a1.251,1.251,0,0,0,1.262,2.159" fill="#313f29"/></g></svg>