<svg xmlns="http://www.w3.org/2000/svg" xmlns:xlink="http://www.w3.org/1999/xlink" width="98.757" height="22.13" viewBox="0 0 98.757 22.13"><defs><clipPath id="a"><rect width="98.757" height="22.13" transform="translate(0 0)" fill="none"/></clipPath></defs><g clip-path="url(#a)"><path d="M0,.076l1.57,0L1.589,7.8A4.755,4.755,0,0,1,5.708,5.755a5.418,5.418,0,0,1,5.613,5.655,5.477,5.477,0,0,1-5.584,5.754,4.813,4.813,0,0,1-4.129-2.1l0,1.875-1.57,0ZM5.712,7.324A4.027,4.027,0,0,0,1.6,11.434,3.947,3.947,0,0,0,5.733,15.6a3.993,3.993,0,0,0,4.019-4.181,3.894,3.894,0,0,0-4.04-4.09" fill="#1d1d1b"/><path d="M24.924,16.882l-1.57,0,0-1.875a4.812,4.812,0,0,1-4.118,2.12A5.478,5.478,0,0,1,13.617,11.4,5.418,5.418,0,0,1,19.2,5.721a4.756,4.756,0,0,1,4.129,2.028l0-1.805,1.57,0Zm-5.7-1.321A3.945,3.945,0,0,0,23.34,11.38a4.027,4.027,0,0,0-4.134-4.09,3.893,3.893,0,0,0-4.019,4.11,3.992,3.992,0,0,0,4.04,4.161" fill="#1d1d1b"/><path d="M28.676,0l1.57,0,.019,7.732a4.755,4.755,0,0,1,4.119-2.049A5.419,5.419,0,0,1,40,11.338a5.477,5.477,0,0,1-5.585,5.754,4.813,4.813,0,0,1-4.129-2.1l0,1.875-1.57,0Zm5.712,7.248a4.027,4.027,0,0,0-4.114,4.11,3.947,3.947,0,0,0,4.135,4.161,3.993,3.993,0,0,0,4.019-4.181,3.893,3.893,0,0,0-4.04-4.09" fill="#1d1d1b"/><path d="M43.774,22.13l2.166-5.324L41.413,5.9l1.641,0,3.724,8.894,3.7-8.912,1.664,0L45.391,22.126Z" fill="#1d1d1b"/><path d="M63.25,15.521a5.772,5.772,0,0,1-3.956,1.51A5.572,5.572,0,0,1,53.563,11.3a5.512,5.512,0,0,1,5.7-5.683,5.8,5.8,0,0,1,3.94,1.466l-1.1,1.1A4.294,4.294,0,0,0,59.27,7.167,4.01,4.01,0,0,0,55.11,11.3a4.068,4.068,0,0,0,4.18,4.184,4.2,4.2,0,0,0,2.833-1.062Z" fill="#1d1d1b"/><path d="M76.327,16.753l-1.57,0-.005-1.875A4.815,4.815,0,0,1,70.634,17a5.478,5.478,0,0,1-5.614-5.727,5.418,5.418,0,0,1,5.585-5.683A4.756,4.756,0,0,1,74.734,7.62l-.005-1.8,1.57,0Zm-5.7-1.321a3.945,3.945,0,0,0,4.113-4.181,4.027,4.027,0,0,0-4.134-4.09,3.893,3.893,0,0,0-4.019,4.11,3.992,3.992,0,0,0,4.04,4.161" fill="#1d1d1b"/><path d="M86.4,7.5a4.007,4.007,0,0,0-1.594-.371c-2.226.006-3.133,2.632-3.126,5.537l.011,4.077-1.57,0L80.094,5.8l1.57,0,.006,2.483c.535-1.875,1.54-2.721,3.133-2.725a3.554,3.554,0,0,1,1.781.417Z" fill="#1d1d1b"/><path d="M87.862,11.218a5.365,5.365,0,0,1,5.516-5.684c3.115-.008,5.37,2.189,5.379,5.656,0,.235,0,.516-.022.727l-9.278.023a3.993,3.993,0,0,0,7.361,1.552c.469.115,1.078.231,1.57.347a5.338,5.338,0,0,1-4.982,3.105,5.423,5.423,0,0,1-5.544-5.726m9.3-.75a3.694,3.694,0,0,0-3.78-3.388,3.834,3.834,0,0,0-3.928,3.407Z" fill="#1d1d1b"/></g></svg>