<svg xmlns="http://www.w3.org/2000/svg" xmlns:xlink="http://www.w3.org/1999/xlink" width="39.323" height="27.068" viewBox="0 0 39.323 27.068"><defs><clipPath id="a"><rect width="39.323" height="27.068" transform="translate(0 0)" fill="none"/></clipPath></defs><g clip-path="url(#a)"><path d="M0,23.5H1.727c1.444,0,1.755-1.161,1.727-2.095V7.191H7.418V21.32c0,3.511-1.274,5.748-5.011,5.748H0ZM5.436,0A2.335,2.335,0,0,1,7.871,2.293,2.359,2.359,0,0,1,5.436,4.615,2.4,2.4,0,0,1,2.973,2.293,2.378,2.378,0,0,1,5.436,0" fill="#1d1d1b"/><path d="M10.248,13.761A6.649,6.649,0,0,1,17.1,6.909a6.672,6.672,0,0,1,6.88,6.852,6.7,6.7,0,0,1-6.88,6.88,6.673,6.673,0,0,1-6.853-6.88m9.854,0a2.987,2.987,0,1,0-5.974,0,2.987,2.987,0,1,0,5.974,0" fill="#1d1d1b"/><path d="M31.169,26.9H27.007l3.171-7.843-5.1-11.863h4.191l2.916,7.5,2.945-7.5h4.19Z" fill="#1d1d1b"/></g></svg>