<svg xmlns="http://www.w3.org/2000/svg" xmlns:xlink="http://www.w3.org/1999/xlink" width="300" height="122.313" viewBox="0 0 300 122.313"><defs><clipPath id="a"><rect width="300" height="122.314" fill="none"/></clipPath></defs><g transform="translate(0 0)" clip-path="url(#a)"><path d="M62.789,54.8,66.2,54.8l.042,16.819c1.776-3.011,5.494-4.448,8.96-4.457,6.777-.016,12.191,4.76,12.21,12.3s-5.37,12.5-12.148,12.518c-3.466.009-7.191-1.561-8.983-4.565l.011,4.078-3.414.008ZM75.215,70.572a8.758,8.758,0,0,0-8.948,8.942c.015,5.86,4.151,9.061,8.992,9.049A8.684,8.684,0,0,0,84,79.468a8.469,8.469,0,0,0-8.787-8.9" transform="translate(22.385 19.535)" fill="#1d1d1b"/><path d="M109.223,88.134l-3.416.008-.009-4.076c-1.777,3.011-5.494,4.6-8.96,4.611-6.778.016-12.194-4.915-12.213-12.458S90,63.873,96.775,63.855c3.466-.008,7.189,1.409,8.981,4.411l-.01-3.924,3.414-.008ZM96.83,85.261c4.843-.012,8.962-3.234,8.948-9.1a8.758,8.758,0,0,0-8.992-8.9,8.47,8.47,0,0,0-8.744,8.941,8.684,8.684,0,0,0,8.789,9.051" transform="translate(30.17 22.764)" fill="#1d1d1b"/><path d="M108.774,54.689l3.416-.008.042,16.819c1.776-3.011,5.494-4.448,8.96-4.457,6.778-.016,12.192,4.76,12.211,12.3s-5.372,12.5-12.149,12.518c-3.466.009-7.191-1.561-8.983-4.565l.011,4.078-3.414.008ZM121.2,70.457a8.758,8.758,0,0,0-8.948,8.941c.015,5.861,4.151,9.063,8.992,9.051a8.686,8.686,0,0,0,8.744-9.1,8.47,8.47,0,0,0-8.789-8.9" transform="translate(38.779 19.494)" fill="#1d1d1b"/><path d="M134.335,99.463l4.711-11.581L129.2,64.157l3.568-.009,8.1,19.345,8.054-19.386,3.618-.009-14.69,35.357Z" transform="translate(46.061 22.851)" fill="#1d1d1b"/><path d="M169.754,85.23a12.556,12.556,0,0,1-8.6,3.284,12.121,12.121,0,0,1-12.468-12.457c-.019-7.542,5.627-12.347,12.405-12.363a12.616,12.616,0,0,1,8.57,3.189l-2.39,2.4a9.348,9.348,0,0,0-6.172-2.226,8.724,8.724,0,0,0-9.049,8.991,8.854,8.854,0,0,0,9.1,9.1,9.134,9.134,0,0,0,6.16-2.31Z" transform="translate(53.006 22.707)" fill="#1d1d1b"/><path d="M191.652,87.926l-3.416.008-.009-4.076c-1.777,3.011-5.494,4.6-8.96,4.611-6.778.015-12.194-4.915-12.213-12.458s5.373-12.347,12.15-12.363c3.466-.009,7.19,1.409,8.981,4.411l-.009-3.924,3.414-.008Zm-12.393-2.873c4.843-.012,8.962-3.234,8.948-9.1a8.758,8.758,0,0,0-8.992-8.9A8.47,8.47,0,0,0,170.47,76a8.684,8.684,0,0,0,8.789,9.051" transform="translate(59.556 22.69)" fill="#1d1d1b"/><path d="M204.948,67.811A8.726,8.726,0,0,0,201.48,67c-4.841.012-6.815,5.724-6.8,12.046l.023,8.867-3.414.008-.061-23.8,3.416-.009.014,5.4c1.163-4.079,3.348-5.92,6.815-5.929a7.748,7.748,0,0,1,3.874.908Z" transform="translate(68.174 22.67)" fill="#1d1d1b"/><path d="M203.686,75.918c-.019-7.542,5.219-12.346,12-12.363s11.682,4.761,11.7,12.3a15.7,15.7,0,0,1-.047,1.58l-20.181.052a8.685,8.685,0,0,0,16.011,3.375c1.02.251,2.347.5,3.416.754a11.61,11.61,0,0,1-10.837,6.755c-6.778.018-12.04-4.913-12.059-12.457m20.23-1.631c-.674-4.533-3.84-7.379-8.223-7.369a8.336,8.336,0,0,0-8.545,7.411Z" transform="translate(72.616 22.657)" fill="#1d1d1b"/><path d="M51.912,91.576c-19.431,0-35.239-16.446-35.239-36.664h9.042c0,15.231,11.753,27.623,26.2,27.623Z" transform="translate(5.944 19.576)" fill="#a9cbe5"/><path d="M97.246,37.666c0-.028,0-.056,0-.083h-.008a14.872,14.872,0,0,0-29.741,0h-.008c0,.027,0,.054,0,.083s0,.054,0,.083H67.5a14.872,14.872,0,0,0,29.741,0h.008c0-.027,0-.054,0-.083" transform="translate(24.061 8.153)" fill="#81aa6e"/><path d="M40.263,17.968H70.917L55.061,0Z" transform="translate(14.354 0)" fill="#e79a8f"/><path d="M0,62.77H3.758c3.14,0,3.819-2.526,3.758-4.558V27.293h8.623V58.028c0,7.637-2.771,12.5-10.9,12.5H0ZM11.826,11.65a5.026,5.026,0,1,1,0,10.038,5.224,5.224,0,0,1-5.358-5.05,5.173,5.173,0,0,1,5.358-4.988" transform="translate(0 4.153)" fill="#1d1d1b"/><path d="M16.434,37.633c0-9.053,6.776-14.905,14.905-14.905S46.306,28.58,46.306,37.633,39.469,52.6,31.339,52.6A14.515,14.515,0,0,1,16.434,37.633m21.434,0a6.5,6.5,0,1,0-13,0,6.5,6.5,0,1,0,13,0" transform="translate(5.859 8.102)" fill="#1d1d1b"/><path d="M53.463,66.049H44.409l6.9-17.059L40.221,23.182h9.116L55.68,39.5l6.407-16.323H71.2Z" transform="translate(14.339 8.264)" fill="#1d1d1b"/></g></svg>