<svg xmlns="http://www.w3.org/2000/svg" xmlns:xlink="http://www.w3.org/1999/xlink" width="90.485" height="56.592" viewBox="0 0 90.485 56.592"><defs><clipPath id="a"><rect width="90.485" height="56.592" transform="translate(0 0)" fill="none"/></clipPath></defs><g clip-path="url(#a)"><path d="M21.82,48.106c8.2-8.4,16.98-18.234,16.469-29.965a6.842,6.842,0,0,0-2.083,6.822A5.247,5.247,0,0,0,42,28.611c2.451-.529,4.1-3.588,2.925-5.8a11.035,11.035,0,0,1-5.022-4.373,15,15,0,0,0,13.8-4.717,4.584,4.584,0,0,0,1.378-2.871c.013-2.99-4.339-3.7-7.116-2.589a16.194,16.194,0,0,0-9.029,9.2c1.045-3.582,2.095-7.4,1.059-10.983S34.944-.088,31.517,1.386c-3.258,1.4-4.027,5.985-2.5,9.182s4.62,5.312,7.573,7.275c-3.469-2.052-7.765-2.024-11.77-1.575-3.1.347-6.334.979-8.736,2.972s-3.609,5.737-1.878,8.334A21.883,21.883,0,0,0,37.787,16.828" fill="none" stroke="#fff" stroke-linejoin="round" stroke-width="2"/><path d="M1,19.771A19.016,19.016,0,0,0,9.439,34.052" fill="none" stroke="#fff" stroke-linejoin="round" stroke-width="2"/><path d="M63.884,24.534A82.328,82.328,0,0,0,66.925,6.093" fill="none" stroke="#fff" stroke-linejoin="round" stroke-width="2"/><path d="M80.44,22.218a29.569,29.569,0,0,1-21.3,23.018" fill="none" stroke="#fff" stroke-linejoin="round" stroke-width="2"/><path d="M89.647,36.275A62.968,62.968,0,0,1,69.536,55.737" fill="none" stroke="#fff" stroke-linejoin="round" stroke-width="2"/></g></svg>