<svg xmlns="http://www.w3.org/2000/svg" xmlns:xlink="http://www.w3.org/1999/xlink" width="97.509" height="22.414" viewBox="0 0 97.509 22.414"><defs><clipPath id="a"><rect width="97.509" height="22.414" transform="translate(0 0.001)" fill="none"/></clipPath></defs><g transform="translate(0 -0.001)"><g clip-path="url(#a)"><path d="M0,6.174l1.57,0,0,1.9A4.835,4.835,0,0,1,5.694,5.926a5.5,5.5,0,0,1,5.615,5.751,5.4,5.4,0,0,1-5.586,5.662,4.737,4.737,0,0,1-4.13-2.006l.018,7.078-1.57,0ZM5.7,7.5A3.965,3.965,0,0,0,1.584,11.7a4.008,4.008,0,0,0,4.135,4.068,3.875,3.875,0,0,0,4.02-4.088A4.013,4.013,0,0,0,5.7,7.5" fill="#1d1d1b"/><path d="M20.368,7.834a4.015,4.015,0,0,0-1.595-.371C16.547,7.469,15.64,10.1,15.647,13l.01,4.077-1.57,0L14.059,6.139l1.571,0,.006,2.485c.535-1.877,1.54-2.723,3.133-2.727a3.567,3.567,0,0,1,1.783.417Z" fill="#1d1d1b"/><path d="M21.549,11.557a5.365,5.365,0,0,1,5.516-5.685c3.117-.008,5.372,2.189,5.381,5.658a7.125,7.125,0,0,1-.022.726l-9.28.024a3.993,3.993,0,0,0,7.362,1.551c.469.116,1.079.232,1.571.347a5.339,5.339,0,0,1-4.984,3.106,5.423,5.423,0,0,1-5.544-5.727m9.3-.75a3.7,3.7,0,0,0-3.781-3.389,3.835,3.835,0,0,0-3.929,3.408Z" fill="#1d1d1b"/><path d="M35.592,13.889a2.338,2.338,0,0,0,2.582,1.891c1.406,0,2.318-.709,2.316-1.74,0-.726-.426-1.4-1.575-1.683l-1.524-.348c-1.359-.324-3.048-1-2.774-3.555a3.378,3.378,0,0,1,3.555-2.61,3.166,3.166,0,0,1,3.452,2.827l-1.523,0a1.838,1.838,0,0,0-1.925-1.331,1.908,1.908,0,0,0-2.035,1.341c-.231,1.266.848,1.638,1.621,1.824l1.5.347c2.063.487,2.77,1.681,2.773,3.18.005,1.9-1.726,3.216-4,3.221a3.653,3.653,0,0,1-3.828-3.364Z" fill="#1d1d1b"/><path d="M53.663,15.718a5.774,5.774,0,0,1-3.957,1.51A5.572,5.572,0,0,1,43.974,11.5a5.514,5.514,0,0,1,5.7-5.686,5.8,5.8,0,0,1,3.94,1.467l-1.1,1.1a4.294,4.294,0,0,0-2.838-1.024A4.012,4.012,0,0,0,45.521,11.5,4.069,4.069,0,0,0,49.7,15.681a4.208,4.208,0,0,0,2.834-1.061Z" fill="#1d1d1b"/><path d="M57.837,16.973l-1.57,0L56.224.1l1.57,0,.02,7.734a4.054,4.054,0,0,1,3.627-2.048c2.672-.007,4.246,1.817,4.23,4.793l.017,6.374-1.571,0L64.1,10.583c0-2.015-.969-3.255-2.656-3.25A3.409,3.409,0,0,0,57.822,11Z" fill="#1d1d1b"/><path d="M68.3,11.439a5.718,5.718,0,0,1,11.435-.029,5.718,5.718,0,1,1-11.435.029m9.889-.025a4.172,4.172,0,0,0-8.343.021,4.172,4.172,0,1,0,8.343-.021" fill="#1d1d1b"/><path d="M81.748,11.4a5.718,5.718,0,0,1,11.435-.029,5.718,5.718,0,1,1-11.435.029m9.889-.025a4.172,4.172,0,0,0-8.343.021,4.172,4.172,0,1,0,8.343-.021" fill="#1d1d1b"/><rect width="1.547" height="16.873" transform="matrix(1, -0.003, 0.003, 1, 95.918, 0.004)" fill="#1d1d1b"/></g></g></svg>