<svg xmlns="http://www.w3.org/2000/svg" xmlns:xlink="http://www.w3.org/1999/xlink" width="100.714" height="48.131" viewBox="0 0 100.714 48.131"><defs><clipPath id="a"><rect width="100.714" height="48.131" transform="translate(0 0)" fill="none"/></clipPath></defs><g clip-path="url(#a)"><path d="M19.347,35.753c-3.724-.665-7.59-1.325-11.248-.362S1.045,39.427,1,43.21c5.063-.032,10.755-.33,14.153-4.084a17.143,17.143,0,0,0,2.918-5.242,126.582,126.582,0,0,0,8.067-30.8A47.076,47.076,0,0,0,60.6,1.428c-1.368-1.374-3.388.84-4.005,2.679a175.849,175.849,0,0,0-8.149,37.562c-.809-3.644-5.705-5.169-9.072-3.56S34.107,43.4,33.26,47.037A14.043,14.043,0,0,0,48.3,35.95" fill="none" stroke="#fff" stroke-linejoin="round" stroke-width="2"/><path d="M62.137,14.948C66,17.311,71.052,14.9,74.363,11.806s6.209-7.024,10.544-8.332" fill="none" stroke="#fff" stroke-linejoin="round" stroke-width="2"/><path d="M80.544,23.394a36.94,36.94,0,0,0,19.412-11.8" fill="none" stroke="#fff" stroke-linejoin="round" stroke-width="2"/><path d="M65.749,37.309l19.9.679c2.538.087,5.763-.283,6.519-2.708" fill="none" stroke="#fff" stroke-linejoin="round" stroke-width="2"/></g></svg>