<svg xmlns="http://www.w3.org/2000/svg" xmlns:xlink="http://www.w3.org/1999/xlink" width="116.431" height="71.167" viewBox="0 0 116.431 71.167"><defs><clipPath id="a"><rect width="116.431" height="71.167" transform="translate(0 0)" fill="none"/></clipPath></defs><g clip-path="url(#a)"><path d="M.975,51.654a33.181,33.181,0,0,1,25.871-24.7,8.883,8.883,0,0,1,5.81.452A9.586,9.586,0,0,1,36.1,31.407a71.8,71.8,0,0,1,7.986,22.286c.6,3.36.958,6.889-.1,10.133s-3.861,6.131-7.269,6.33c-4.887.285-8.6-5.208-8.045-10.072s4.089-8.863,7.927-11.9c5.355-4.24,13.248-7.219,18.771-3.2,2.956,2.15,4.4,5.759,6.595,8.681a19.466,19.466,0,0,0,34.344-6.6c.793-2.918.844-6.213-.74-8.79-1.44-2.343-4-3.752-6.572-4.733a33.114,33.114,0,0,0-11.1-2.166c-4.865-.1-10.936,2.177-11.052,7.042s5.8,7.417,10.651,7.72c16.532,1.032,33.523-10.3,37.3-26.428,1.591-6.788.384-15.012-5.42-18.876" fill="none" stroke="#fff" stroke-miterlimit="10" stroke-width="2"/></g></svg>