<svg xmlns="http://www.w3.org/2000/svg" xmlns:xlink="http://www.w3.org/1999/xlink" width="300" height="123.46" viewBox="0 0 300 123.46"><defs><clipPath id="a"><rect width="300" height="123.46" fill="none"/></clipPath></defs><g transform="translate(0 -0.001)"><g transform="translate(0 0.001)" clip-path="url(#a)"><path d="M52.332,92.238c-19.606,0-35.558-16.6-35.558-37H25.9c0,15.369,11.859,27.872,26.433,27.872Z" transform="translate(6.048 19.919)" fill="#a9cbe5"/><path d="M97.921,37.938c0-.029,0-.056,0-.084h-.008a15.006,15.006,0,0,0-30.01,0H67.9c0,.029,0,.056,0,.084s0,.056,0,.084h.008a15.006,15.006,0,0,0,30.01,0h.008c0-.029,0-.056,0-.084" transform="translate(24.483 8.296)" fill="#81aa6e"/><path d="M40.505,18.131H71.437L55.438,0Z" transform="translate(14.606 -0.001)" fill="#e79a8f"/><path d="M0,63.3H3.792c3.169,0,3.852-2.548,3.791-4.6v-31.2h8.7V58.517c0,7.706-2.8,12.617-11,12.617H0ZM11.932,11.72a5.072,5.072,0,1,1,0,10.13,5.271,5.271,0,0,1-5.407-5.1,5.22,5.22,0,0,1,5.407-5.033" transform="translate(0 4.225)" fill="#1d1d1b"/><path d="M16.533,37.9c0-9.136,6.836-15.04,15.04-15.04s15.1,5.9,15.1,15.04-6.9,15.1-15.1,15.1a14.644,14.644,0,0,1-15.04-15.1m21.628,0a6.557,6.557,0,1,0-13.113,0,6.557,6.557,0,1,0,13.113,0" transform="translate(5.962 8.244)" fill="#1d1d1b"/><path d="M53.825,66.576H44.689L51.65,49.362,40.463,23.321h9.2l6.4,16.47,6.464-16.47h9.2Z" transform="translate(14.59 8.409)" fill="#1d1d1b"/><path d="M63.186,64.685l3.448-.008.01,4.166c1.793-3.038,5.544-4.694,9.042-4.7,6.841-.018,12.305,5.008,12.326,12.622s-5.422,12.41-12.263,12.428c-3.5.008-7.256-1.371-9.064-4.4l.039,15.534-3.448.01Zm12.508,2.9c-4.887.012-9.045,3.314-9.03,9.23a8.8,8.8,0,0,0,9.075,8.928,8.508,8.508,0,0,0,8.826-8.973c-.014-5.35-3.882-9.2-8.871-9.185" transform="translate(22.784 23.128)" fill="#1d1d1b"/><path d="M99.716,68.347a8.8,8.8,0,0,0-3.5-.814c-4.886.012-6.878,5.777-6.861,12.157l.023,8.95-3.449.008-.06-24.021,3.448-.008.012,5.452c1.173-4.117,3.381-5.976,6.878-5.984a7.813,7.813,0,0,1,3.912.916Z" transform="translate(30.963 23.108)" fill="#1d1d1b"/><path d="M97.95,76.532c-.019-7.612,5.268-12.462,12.109-12.478s11.791,4.806,11.81,12.418a15.546,15.546,0,0,1-.048,1.595l-20.369.052a8.767,8.767,0,0,0,16.161,3.406c1.029.254,2.367.507,3.448.762A11.724,11.724,0,0,1,110.122,89.1c-6.841.018-12.151-4.959-12.172-12.572m20.417-1.646c-.68-4.576-3.875-7.448-8.3-7.438a8.415,8.415,0,0,0-8.623,7.481Z" transform="translate(35.32 23.096)" fill="#1d1d1b"/><path d="M121.409,81.667c.467,1.8,1.6,4.162,5.667,4.151,3.087-.007,5.089-1.555,5.083-3.819,0-1.593-.933-3.084-3.456-3.694l-3.344-.763c-2.985-.713-6.693-2.195-6.09-7.8.506-3.448,3.9-5.72,7.8-5.729,3.7-.01,6.949,1.782,7.577,6.2l-3.343.008a4.03,4.03,0,0,0-4.226-2.92c-2.313.005-4.212,1.245-4.465,2.942-.508,2.78,1.86,3.6,3.558,4l3.294.763c4.529,1.068,6.079,3.687,6.089,6.98.01,4.167-3.791,7.057-8.779,7.07-4.064.01-8.185-2.706-8.4-7.385Z" transform="translate(42.684 23.08)" fill="#1d1d1b"/><path d="M155.394,85.7a12.674,12.674,0,0,1-8.685,3.314A12.231,12.231,0,0,1,134.127,76.44c-.019-7.612,5.679-12.462,12.52-12.478A12.73,12.73,0,0,1,155.3,67.18L152.885,69.6a9.442,9.442,0,0,0-6.23-2.248,8.807,8.807,0,0,0-9.134,9.076,8.933,8.933,0,0,0,9.179,9.184,9.219,9.219,0,0,0,6.219-2.329Z" transform="translate(48.364 23.063)" fill="#1d1d1b"/><path d="M157.43,91.776l-3.446.008-.094-37.034,3.446-.01.042,16.975c1.484-3.142,5.185-4.487,7.964-4.494,5.863-.015,9.319,3.988,9.285,10.52l.035,13.991-3.446.008L171.18,77.75c-.011-4.422-2.127-7.143-5.83-7.134-3.807.01-7.968,2.18-7.954,8.042Z" transform="translate(55.491 19.738)" fill="#1d1d1b"/><path d="M173.368,76.341c-.019-7.612,5.679-12.462,12.52-12.478s12.562,4.8,12.581,12.415a12.551,12.551,0,1,1-25.1.063m21.707-.054a9.157,9.157,0,0,0-18.312.046,9.156,9.156,0,1,0,18.312-.046" transform="translate(62.514 23.027)" fill="#1d1d1b"/><path d="M195.066,76.287c-.019-7.612,5.679-12.462,12.52-12.478s12.562,4.8,12.581,12.415a12.551,12.551,0,1,1-25.1.063m21.707-.054a9.157,9.157,0,0,0-18.312.046,9.156,9.156,0,1,0,18.312-.046" transform="translate(70.338 23.008)" fill="#1d1d1b"/><rect width="3.395" height="37.035" transform="translate(296.514 74.269) rotate(-0.138)" fill="#1d1d1b"/></g></g></svg>